
<svg width="20px" height="20.0000047px" viewBox="0 0 20 20.0000047" version="1.1" xmlns="http://www.w3.org/2000/svg" xmlns:xlink="http://www.w3.org/1999/xlink">
    <g id="Page-1" stroke="none" stroke-width="1" fill="none" fill-rule="evenodd">
        <g id="Group" fill="#EF4B35">
            <path d="M10,0 C4.48128605,0 0,4.47894884 0,10 C0,15.5187721 4.48122093,20 10,20 C15.5210512,20 20,15.5187023 20,10 C20,4.47901628 15.5209837,0 10,0 L10,0 Z M10,0.465116279 C15.269714,0.465116279 19.5348837,4.73028605 19.5348837,10.0000047 C19.5348837,15.2673302 15.2696465,19.5348884 10,19.5348884 C4.73273256,19.5348884 0.465116279,15.2672605 0.465116279,10.0000047 C0.465116279,4.73035349 4.73266512,0.465116279 10,0.465116279 L10,0.465116279 Z" id="Shape"></path>
            <path d="M6.46424419,6.27848837 C6.37747455,6.29423024 6.30707112,6.35769151 6.28243816,6.44236732 C6.2578052,6.52704313 6.28318017,6.6183672 6.34796512,6.67819767 L9.66918605,9.99942326 L6.34796512,13.3206326 C6.28821968,13.3790458 6.26418335,13.4648998 6.28491338,13.5458435 C6.30564342,13.6267873 6.36798918,13.6905185 6.44845781,13.7130223 C6.52892643,13.7355261 6.61528796,13.7133822 6.675,13.6549349 L10.0034884,10.3337256 L13.3247093,13.6549349 C13.3844213,13.7133822 13.4707829,13.7355261 13.5512515,13.7130223 C13.6317201,13.6905185 13.6940659,13.6267873 13.7147959,13.5458435 C13.735526,13.4648998 13.7114896,13.3790458 13.6517442,13.3206326 L10.3305233,9.99942326 L13.6517442,6.67819767 C13.7205946,6.61161669 13.7415894,6.50963686 13.7046377,6.42127411 C13.667686,6.33291136 13.5803444,6.27623589 13.484593,6.27848837 C13.4248779,6.27895656 13.3676307,6.30237585 13.3247093,6.34389535 L10.0034884,9.66512093 L6.675,6.34389535 C6.63027919,6.30060565 6.57007319,6.27704678 6.50784884,6.27848837 C6.49334603,6.27712286 6.478747,6.27712286 6.46424419,6.27848837 L6.46424419,6.27848837 Z" id="Path"></path>
        </g>
    </g>
</svg>