<?xml version="1.0" encoding="UTF-8"?>
<svg width="20px" height="21.1890346px" viewBox="0 0 20 21.1890346" version="1.1" xmlns="http://www.w3.org/2000/svg" xmlns:xlink="http://www.w3.org/1999/xlink">
    <title>time-left-12446</title>
    <g id="Page-1" stroke="none" stroke-width="1" fill="none" fill-rule="evenodd">
        <g id="MacBook-Pro-16&quot;" transform="translate(-1464, -144)" fill="#9B9B9B" fill-rule="nonzero">
            <g id="time-left-12446" transform="translate(1464, 144)">
                <path d="M9.99821657,21.1890346 C9.08309647,21.1890346 8.15361509,21.0626082 7.23119664,20.7965712 C1.9323523,19.2681535 -1.13531295,13.714102 0.392633902,8.41549309 C1.1328288,5.84858947 2.82840249,3.72335431 5.16670266,2.43178013 C7.50523826,1.13997052 10.206573,0.836029163 12.7734766,1.57669492 C13.1482826,1.68475773 13.3646437,2.0762794 13.2565809,2.45108546 C13.1485181,2.82589153 12.7572318,3.04201714 12.3821903,2.93395434 C10.1776149,2.29852621 7.85791382,2.55914827 5.84968784,3.66826346 C3.84146185,4.77737866 2.38555687,6.60243936 1.74989332,8.80677933 C0.437836644,13.3569533 3.07230895,18.1267843 7.6227183,19.4390764 C12.1728922,20.7513685 16.9427232,18.1164253 18.2550153,13.5662514 C18.3630781,13.1914453 18.7541289,12.9748488 19.1294059,13.0831471 C19.5042119,13.1912099 19.720573,13.5827315 19.6125102,13.9575376 C18.3501294,18.3341989 14.3409758,21.1890346 9.99821657,21.1890346 Z" id="Path"></path>
                <path d="M14.6112506,3.81893927 C14.4921225,3.81893927 14.371111,3.78880411 14.2604584,3.72523775 L14.1667569,3.67250122 C13.8253821,3.4836856 13.7017808,3.05378869 13.8905964,2.71241382 C14.0796475,2.37127437 14.509309,2.24720226 14.8504484,2.43648875 L14.9634553,2.5000551 C15.302005,2.69428563 15.4187787,3.12583056 15.2243127,3.46414483 C15.0941194,3.69157113 14.8560987,3.81893927 14.6112506,3.81893927 Z" id="Path"></path>
                <path d="M19.0825551,9.89941436 C18.7576604,9.89941436 18.4654906,9.67410694 18.3932133,9.34379732 C18.3779103,9.27340347 18.3611947,9.20324504 18.3440082,9.13355748 C18.2503067,8.75498452 18.481029,8.37193837 18.8598374,8.27800142 C19.2393521,8.1842999 19.6214566,8.41525766 19.7153935,8.79383062 C19.735876,8.87623146 19.7551813,8.95886772 19.7733095,9.04197484 C19.8566521,9.42313755 19.6150999,9.79959163 19.2341726,9.88269876 C19.1830841,9.89423487 19.1324665,9.89941436 19.0825551,9.89941436 Z M18.1839152,7.47989051 C17.9324749,7.47989051 17.6890393,7.34545943 17.5614358,7.1086159 C17.5270628,7.04504955 17.4919836,6.98195405 17.4561981,6.91932942 C17.2619676,6.58101515 17.3787413,6.14923479 17.7168202,5.95500426 C18.054899,5.76077373 18.4869148,5.87731205 18.6811453,6.21562632 C18.7235229,6.2893162 18.7647233,6.36324152 18.8047466,6.43787313 C18.9897953,6.78136688 18.8614855,7.20985121 18.5182271,7.39489993 C18.4118123,7.45258052 18.2971575,7.47989051 18.1839152,7.47989051 Z M16.6550266,5.39868093 C16.4709196,5.39868093 16.2868126,5.32710992 16.1486146,5.18443877 C16.0982324,5.13287939 16.0476148,5.0820263 15.9960554,5.03164408 C15.7163634,4.75972134 15.7104776,4.31240254 15.9826358,4.032946 C16.2545586,3.75325404 16.7021128,3.74736826 16.9813339,4.01952644 C17.0423105,4.07885504 17.1025808,4.13912536 17.161674,4.20010197 C17.4335968,4.48002937 17.4270047,4.92711274 17.1473127,5.19880005 C17.009821,5.33252483 16.8323061,5.39868093 16.6550266,5.39868093 Z" id="Shape"></path>
                <path d="M19.2887926,12.3556654 C19.2760794,12.3556654 19.2636015,12.35543 19.2508882,12.3547237 C18.86125,12.3340058 18.5622527,12.0015773 18.5827352,11.6121745 L18.5876793,11.5071723 C18.6013343,11.1170632 18.9271707,10.8081778 19.3184569,10.8260706 C19.7083306,10.839961 20.0132136,11.1669746 19.9995587,11.5568482 L19.9939083,11.6868061 C19.9734258,12.0634956 19.6617152,12.3556654 19.2887926,12.3556654 Z" id="Path"></path>
                <path d="M13.6083147,14.9051472 C13.4583452,14.9051472 13.307434,14.8578255 13.1793595,14.7596508 L9.27756244,11.7706195 C9.1031081,11.6368947 9.00069564,11.4297155 9.00069564,11.209823 L9.00069564,5.38620309 C9.00069564,4.99609401 9.3168794,4.67991025 9.70698848,4.67991025 C10.0970976,4.67991025 10.4132813,4.99609401 10.4132813,5.38620309 L10.4132813,10.8611498 L14.0382116,13.6380578 C14.3480388,13.8753722 14.4066611,14.3186887 14.1695821,14.6282804 C14.0304424,14.8097976 13.8206734,14.9051472 13.6083147,14.9051472 Z" id="Path"></path>
                <path d="M11.0294041,4.0458947 C10.8975628,4.0458947 10.7659569,4.00916748 10.6498894,3.93524216 C10.4090436,3.78174118 10.2842652,3.49804689 10.3339411,3.21694234 L10.7982109,0.583882618 C10.8476514,0.302542636 11.0618936,0.0786478045 11.3408793,0.0169648962 C11.6210421,-0.0454243049 11.9087387,0.0675825499 12.0723632,0.301365481 L13.1567582,1.85003025 C13.380653,2.16974548 13.3029608,2.61000135 12.983481,2.83366075 L11.4348162,3.9180557 C11.3130984,4.0032817 11.1711335,4.0458947 11.0294041,4.0458947 Z" id="Path"></path>
            </g>
        </g>
    </g>
</svg>